<svg width="134" height="114" viewBox="0 0 134 114" fill="none" xmlns="http://www.w3.org/2000/svg">
<path d="M122.696 0H11.3039C5.06095 0 0 5.06095 0 11.3039V82.1123C0 88.3553 5.06095 93.4163 11.3039 93.4163H122.696C128.939 93.4163 134 88.3553 134 82.1123V11.3039C134 5.06095 128.939 0 122.696 0Z" fill="#A2B2BF"/>
<path d="M123.392 2.79688H10.6097C6.17828 2.79688 2.58594 6.38922 2.58594 10.8206V82.598C2.58594 87.0294 6.17828 90.6217 10.6097 90.6217H123.392C127.824 90.6217 131.416 87.0294 131.416 82.598V10.8206C131.416 6.38922 127.824 2.79688 123.392 2.79688Z" fill="#EDF2F4"/>
<path d="M83.3885 93.4141H50.625V111.787H83.3885V93.4141Z" fill="#032F3C"/>
<path d="M19.2124 110.82H114.794C116.224 110.82 117.382 111.978 117.382 113.408V113.626H16.625V113.408C16.625 111.978 17.783 110.82 19.2124 110.82Z" fill="#A2B2BF"/>
<path d="M80.2257 59.9609H12.2566C11.8927 59.9609 11.5977 60.256 11.5977 60.6199V60.7313C11.5977 61.0953 11.8927 61.3903 12.2566 61.3903H80.2257C80.5896 61.3903 80.8846 61.0953 80.8846 60.7313V60.6199C80.8846 60.256 80.5896 59.9609 80.2257 59.9609Z" fill="#EDF2F4"/>
<path d="M128.751 12.1953H4.15545C1.87771 12.1953 0.03125 12.3945 0.03125 12.6402V14.368C0.03125 14.6137 1.87771 14.8129 4.15545 14.8129H128.751C131.029 14.8129 132.875 14.6137 132.875 14.368V12.6402C132.875 12.3945 131.029 12.1953 128.751 12.1953Z" fill="#A2B2BF"/>
<rect x="13" y="56" width="108" height="24" rx="8" fill="#A2B2BF"/>
<path d="M113.341 9.33029C114.168 9.33029 114.838 8.65999 114.838 7.83312C114.838 7.00625 114.168 6.33594 113.341 6.33594C112.514 6.33594 111.844 7.00625 111.844 7.83312C111.844 8.65999 112.514 9.33029 113.341 9.33029Z" fill="#F2A057"/>
<path d="M117.692 9.33029C118.519 9.33029 119.19 8.65999 119.19 7.83312C119.19 7.00625 118.519 6.33594 117.692 6.33594C116.866 6.33594 116.195 7.00625 116.195 7.83312C116.195 8.65999 116.866 9.33029 117.692 9.33029Z" fill="#0397D6"/>
<path d="M122.036 9.33029C122.863 9.33029 123.533 8.65999 123.533 7.83312C123.533 7.00625 122.863 6.33594 122.036 6.33594C121.209 6.33594 120.539 7.00625 120.539 7.83312C120.539 8.65999 121.209 9.33029 122.036 9.33029Z" fill="#032F3C"/>
<path d="M14.8828 38.2578L13.8724 37.5933C12.5376 36.7156 10.7387 37.0871 9.86089 38.4219L9.59018 38.8335C8.71241 40.1683 9.08397 41.9673 10.4187 42.845L11.4291 43.5095L14.8828 38.2578Z" fill="#032F3C"/>
<path d="M13.5503 44.8946L11.4297 43.5L14.8833 38.2483L17.004 39.6429L13.5503 44.8946Z" fill="#A2B2BF"/>
<path d="M51.5396 62.3516L48.0858 67.602L51.669 67.8458L54.4609 68.0349L53.1819 65.5416L51.5396 62.3516Z" fill="#F2A057"/>
<path d="M17.0018 39.6389L51.5391 62.3516L48.0854 67.6033L13.5481 44.8906L17.0018 39.6389Z" fill="#F2A057"/>
<path d="M16.2674 40.7561L50.8047 63.4688L50.2414 64.3253L15.7041 41.6127L16.2674 40.7561Z" fill="#D1864A"/>
<path d="M14.8455 42.9202L49.3828 65.6328L48.8195 66.4894L14.2822 43.7767L14.8455 42.9202Z" fill="#D1864A"/>
<path d="M52.2513 66.587C51.9875 66.9851 51.7934 67.4131 51.669 67.8511L54.4609 68.0402L53.1819 65.5469C52.8286 65.8355 52.5151 66.1839 52.2513 66.587Z" fill="#032F3C"/>
<path d="M119.055 24.9566L80.9895 25.0053C79.8907 25.0067 79.0022 25.9096 79.0048 27.022C79.0075 28.1344 79.9004 29.035 80.9991 29.0336L119.064 28.9849C120.163 28.9835 121.052 28.0806 121.049 26.9682C121.046 25.8558 120.153 24.9552 119.055 24.9566Z" fill="#F2A057"/>
<rect x="62" y="33" width="59" height="3" rx="1.5" fill="#A2B2BF"/>
<rect x="36" y="39" width="85.3997" height="2.61761" rx="1.30881" fill="#A2B2BF"/>
</svg>
